<?xml version="1.0" encoding="UTF-8" standalone="no"?>
<svg width="60px" height="60px" viewBox="0 0 60 60" version="1.1" xmlns="http://www.w3.org/2000/svg" xmlns:xlink="http://www.w3.org/1999/xlink" xmlns:sketch="http://www.bohemiancoding.com/sketch/ns">
    <!-- Generator: Sketch 3.2.2 (9983) - http://www.bohemiancoding.com/sketch -->
    <title>Likecam</title>
    <desc>Created with Sketch.</desc>
    <defs></defs>
    <g id="stroked" stroke="none" stroke-width="1" fill="none" fill-rule="evenodd" sketch:type="MSPage">
        <g id="Photo" sketch:type="MSLayerGroup" transform="translate(-599.000000, -357.000000)" stroke="#8bc8db" stroke-width="2" stroke-linejoin="round">
            <g id="Likecam" transform="translate(603.000000, 366.000000)" sketch:type="MSShapeGroup">
                <path d="M14.6,9 L3.99400932,9 C1.7899577,9 0,10.789518 0,12.9970002 L0,38.0029998 C0,40.2023415 1.78817888,42 3.99400932,42 L48.0059907,42 C50.2100423,42 52,40.210482 52,38.0029998 L52,12.9970002 C52,10.7976585 50.2118211,9 48.0059907,9 L37.4,9 L35,0 L17,0 L14.6,9 Z" id="Rectangle-2549" stroke-linecap="round"></path>
                <path d="M21,4 L31,4" id="Line" stroke-linecap="square"></path>
                <circle id="Oval-1877" stroke-linecap="round" cx="26" cy="25" r="12"></circle>
                <path d="M26,21.5411339 C24.2938654,19.7700281 22.2056217,19.0304313 20.75,19.8708349 C18.8368295,20.9754044 18.7409729,24.3910979 20.5358984,27.5 C21.9746515,29.9919934 24.1915354,31.5304578 26,31.4740286 C27.8084646,31.5304578 30.0253485,29.9919934 31.4641016,27.5 C33.2590271,24.3910979 33.1631705,20.9754044 31.25,19.8708349 C29.7943783,19.0304313 27.7061346,19.7700281 26,21.5411339 Z" id="Oval-1903" stroke-linecap="round"></path>
            </g>
        </g>
    </g>
</svg>